<mxfile host="Electron" modified="2023-04-22T04:30:14.877Z" agent="Mozilla/5.0 (Windows NT 10.0; Win64; x64) AppleWebKit/537.36 (KHTML, like Gecko) draw.io/21.2.1 Chrome/112.0.5615.87 Electron/24.1.2 Safari/537.36" etag="KAxdA-Jn8HIlrNpa4Ur4" version="21.2.1" type="device">
  <diagram name="第 1 页" id="gU5M_GP0_ENzRZUk-UQZ">
    <mxGraphModel dx="903" dy="812" grid="1" gridSize="10" guides="1" tooltips="1" connect="1" arrows="1" fold="1" page="1" pageScale="1" pageWidth="827" pageHeight="1169" math="0" shadow="0">
      <root>
        <mxCell id="0" />
        <mxCell id="1" parent="0" />
        <mxCell id="z9sWmunYkAh27AiPCt_Q-20" style="edgeStyle=orthogonalEdgeStyle;rounded=0;orthogonalLoop=1;jettySize=auto;html=1;exitX=0.5;exitY=0.5;exitDx=0;exitDy=0;exitPerimeter=0;entryX=0;entryY=0.5;entryDx=0;entryDy=0;" edge="1" parent="1" source="z9sWmunYkAh27AiPCt_Q-4" target="z9sWmunYkAh27AiPCt_Q-18">
          <mxGeometry relative="1" as="geometry" />
        </mxCell>
        <mxCell id="z9sWmunYkAh27AiPCt_Q-4" value="用户" style="shape=umlActor;verticalLabelPosition=bottom;verticalAlign=top;html=1;outlineConnect=0;" vertex="1" parent="1">
          <mxGeometry x="490" y="260" width="30" height="60" as="geometry" />
        </mxCell>
        <mxCell id="z9sWmunYkAh27AiPCt_Q-6" value="" style="swimlane;startSize=0;fontSize=15;" vertex="1" parent="1">
          <mxGeometry x="130" y="470" width="200" height="520" as="geometry" />
        </mxCell>
        <mxCell id="z9sWmunYkAh27AiPCt_Q-8" value="Prompt" style="text;html=1;align=center;verticalAlign=middle;resizable=0;points=[];autosize=1;strokeColor=none;fillColor=none;fontSize=15;" vertex="1" parent="z9sWmunYkAh27AiPCt_Q-6">
          <mxGeometry x="65" y="10" width="70" height="30" as="geometry" />
        </mxCell>
        <mxCell id="z9sWmunYkAh27AiPCt_Q-5" value="你是一个智慧家庭系统助理....." style="rounded=0;whiteSpace=wrap;html=1;fontSize=15;" vertex="1" parent="z9sWmunYkAh27AiPCt_Q-6">
          <mxGeometry x="30" y="50" width="140" height="60" as="geometry" />
        </mxCell>
        <mxCell id="z9sWmunYkAh27AiPCt_Q-10" value="当.....情况下....返回带json数据的回复......" style="rounded=0;whiteSpace=wrap;html=1;fontSize=15;" vertex="1" parent="z9sWmunYkAh27AiPCt_Q-6">
          <mxGeometry x="30" y="130" width="140" height="60" as="geometry" />
        </mxCell>
        <mxCell id="z9sWmunYkAh27AiPCt_Q-11" value="json数据的格式要求是.....参数有....." style="rounded=0;whiteSpace=wrap;html=1;fontSize=15;" vertex="1" parent="z9sWmunYkAh27AiPCt_Q-6">
          <mxGeometry x="30" y="210" width="140" height="60" as="geometry" />
        </mxCell>
        <mxCell id="z9sWmunYkAh27AiPCt_Q-13" value="当前能控制的设备有....." style="rounded=0;whiteSpace=wrap;html=1;fontSize=15;" vertex="1" parent="z9sWmunYkAh27AiPCt_Q-6">
          <mxGeometry x="30" y="290" width="140" height="60" as="geometry" />
        </mxCell>
        <mxCell id="z9sWmunYkAh27AiPCt_Q-15" value="接下来是对话示例...." style="rounded=0;whiteSpace=wrap;html=1;fontSize=15;" vertex="1" parent="z9sWmunYkAh27AiPCt_Q-6">
          <mxGeometry x="30" y="370" width="140" height="60" as="geometry" />
        </mxCell>
        <mxCell id="z9sWmunYkAh27AiPCt_Q-16" value="其他要求" style="rounded=0;whiteSpace=wrap;html=1;fontSize=15;" vertex="1" parent="z9sWmunYkAh27AiPCt_Q-6">
          <mxGeometry x="30" y="450" width="140" height="60" as="geometry" />
        </mxCell>
        <mxCell id="z9sWmunYkAh27AiPCt_Q-18" value="" style="rounded=0;whiteSpace=wrap;html=1;" vertex="1" parent="1">
          <mxGeometry x="610" y="260" width="120" height="60" as="geometry" />
        </mxCell>
        <mxCell id="z9sWmunYkAh27AiPCt_Q-19" value="" style="rounded=0;whiteSpace=wrap;html=1;" vertex="1" parent="1">
          <mxGeometry x="827" y="260" width="120" height="60" as="geometry" />
        </mxCell>
        <mxCell id="z9sWmunYkAh27AiPCt_Q-22" value="" style="shape=umlLifeline;perimeter=lifelinePerimeter;whiteSpace=wrap;html=1;container=1;dropTarget=0;collapsible=0;recursiveResize=0;outlineConnect=0;portConstraint=eastwest;newEdgeStyle={&quot;edgeStyle&quot;:&quot;elbowEdgeStyle&quot;,&quot;elbow&quot;:&quot;vertical&quot;,&quot;curved&quot;:0,&quot;rounded&quot;:0};participant=umlActor;" vertex="1" parent="1">
          <mxGeometry x="413" y="510" width="20" height="370" as="geometry" />
        </mxCell>
        <mxCell id="z9sWmunYkAh27AiPCt_Q-37" value="" style="html=1;points=[];perimeter=orthogonalPerimeter;outlineConnect=0;targetShapes=umlLifeline;portConstraint=eastwest;newEdgeStyle={&quot;edgeStyle&quot;:&quot;elbowEdgeStyle&quot;,&quot;elbow&quot;:&quot;vertical&quot;,&quot;curved&quot;:0,&quot;rounded&quot;:0};" vertex="1" parent="z9sWmunYkAh27AiPCt_Q-22">
          <mxGeometry x="5" y="50" width="10" height="90" as="geometry" />
        </mxCell>
        <mxCell id="z9sWmunYkAh27AiPCt_Q-53" value="" style="html=1;points=[];perimeter=orthogonalPerimeter;outlineConnect=0;targetShapes=umlLifeline;portConstraint=eastwest;newEdgeStyle={&quot;edgeStyle&quot;:&quot;elbowEdgeStyle&quot;,&quot;elbow&quot;:&quot;vertical&quot;,&quot;curved&quot;:0,&quot;rounded&quot;:0};" vertex="1" parent="z9sWmunYkAh27AiPCt_Q-22">
          <mxGeometry x="5" y="210" width="10" height="140" as="geometry" />
        </mxCell>
        <mxCell id="z9sWmunYkAh27AiPCt_Q-24" value=":主控端程序" style="shape=umlLifeline;perimeter=lifelinePerimeter;whiteSpace=wrap;html=1;container=1;dropTarget=0;collapsible=0;recursiveResize=0;outlineConnect=0;portConstraint=eastwest;newEdgeStyle={&quot;edgeStyle&quot;:&quot;elbowEdgeStyle&quot;,&quot;elbow&quot;:&quot;vertical&quot;,&quot;curved&quot;:0,&quot;rounded&quot;:0};" vertex="1" parent="1">
          <mxGeometry x="480" y="510" width="100" height="370" as="geometry" />
        </mxCell>
        <mxCell id="z9sWmunYkAh27AiPCt_Q-26" value="" style="html=1;points=[];perimeter=orthogonalPerimeter;outlineConnect=0;targetShapes=umlLifeline;portConstraint=eastwest;newEdgeStyle={&quot;edgeStyle&quot;:&quot;elbowEdgeStyle&quot;,&quot;elbow&quot;:&quot;vertical&quot;,&quot;curved&quot;:0,&quot;rounded&quot;:0};" vertex="1" parent="z9sWmunYkAh27AiPCt_Q-24">
          <mxGeometry x="45" y="90" width="10" height="80" as="geometry" />
        </mxCell>
        <mxCell id="z9sWmunYkAh27AiPCt_Q-60" value="" style="html=1;points=[];perimeter=orthogonalPerimeter;outlineConnect=0;targetShapes=umlLifeline;portConstraint=eastwest;newEdgeStyle={&quot;edgeStyle&quot;:&quot;elbowEdgeStyle&quot;,&quot;elbow&quot;:&quot;vertical&quot;,&quot;curved&quot;:0,&quot;rounded&quot;:0};" vertex="1" parent="z9sWmunYkAh27AiPCt_Q-24">
          <mxGeometry x="45" y="300" width="10" height="40" as="geometry" />
        </mxCell>
        <mxCell id="z9sWmunYkAh27AiPCt_Q-25" value=":GPT API" style="shape=umlLifeline;perimeter=lifelinePerimeter;whiteSpace=wrap;html=1;container=1;dropTarget=0;collapsible=0;recursiveResize=0;outlineConnect=0;portConstraint=eastwest;newEdgeStyle={&quot;edgeStyle&quot;:&quot;elbowEdgeStyle&quot;,&quot;elbow&quot;:&quot;vertical&quot;,&quot;curved&quot;:0,&quot;rounded&quot;:0};" vertex="1" parent="1">
          <mxGeometry x="750" y="510" width="100" height="360" as="geometry" />
        </mxCell>
        <mxCell id="z9sWmunYkAh27AiPCt_Q-58" value="" style="html=1;points=[];perimeter=orthogonalPerimeter;outlineConnect=0;targetShapes=umlLifeline;portConstraint=eastwest;newEdgeStyle={&quot;edgeStyle&quot;:&quot;elbowEdgeStyle&quot;,&quot;elbow&quot;:&quot;vertical&quot;,&quot;curved&quot;:0,&quot;rounded&quot;:0};" vertex="1" parent="z9sWmunYkAh27AiPCt_Q-25">
          <mxGeometry x="45" y="230" width="10" height="60" as="geometry" />
        </mxCell>
        <mxCell id="z9sWmunYkAh27AiPCt_Q-29" value="设置prompt" style="endArrow=block;endFill=1;html=1;edgeStyle=orthogonalEdgeStyle;align=left;verticalAlign=top;rounded=0;" edge="1" parent="1" source="z9sWmunYkAh27AiPCt_Q-26" target="z9sWmunYkAh27AiPCt_Q-32">
          <mxGeometry x="-1" relative="1" as="geometry">
            <mxPoint x="550" y="590" as="sourcePoint" />
            <mxPoint x="710" y="590" as="targetPoint" />
            <Array as="points">
              <mxPoint x="610" y="630" />
              <mxPoint x="610" y="630" />
            </Array>
          </mxGeometry>
        </mxCell>
        <mxCell id="z9sWmunYkAh27AiPCt_Q-30" value="2" style="edgeLabel;resizable=0;html=1;align=left;verticalAlign=bottom;" connectable="0" vertex="1" parent="z9sWmunYkAh27AiPCt_Q-29">
          <mxGeometry x="-1" relative="1" as="geometry" />
        </mxCell>
        <mxCell id="z9sWmunYkAh27AiPCt_Q-31" value=":Message" style="shape=umlLifeline;perimeter=lifelinePerimeter;whiteSpace=wrap;html=1;container=1;dropTarget=0;collapsible=0;recursiveResize=0;outlineConnect=0;portConstraint=eastwest;newEdgeStyle={&quot;edgeStyle&quot;:&quot;elbowEdgeStyle&quot;,&quot;elbow&quot;:&quot;vertical&quot;,&quot;curved&quot;:0,&quot;rounded&quot;:0};" vertex="1" parent="1">
          <mxGeometry x="620" y="510" width="100" height="370" as="geometry" />
        </mxCell>
        <mxCell id="z9sWmunYkAh27AiPCt_Q-32" value="" style="html=1;points=[];perimeter=orthogonalPerimeter;outlineConnect=0;targetShapes=umlLifeline;portConstraint=eastwest;newEdgeStyle={&quot;edgeStyle&quot;:&quot;elbowEdgeStyle&quot;,&quot;elbow&quot;:&quot;vertical&quot;,&quot;curved&quot;:0,&quot;rounded&quot;:0};" vertex="1" parent="z9sWmunYkAh27AiPCt_Q-31">
          <mxGeometry x="45" y="110" width="10" height="230" as="geometry" />
        </mxCell>
        <mxCell id="z9sWmunYkAh27AiPCt_Q-43" value="启动AI助手" style="endArrow=block;endFill=1;html=1;edgeStyle=orthogonalEdgeStyle;align=left;verticalAlign=top;rounded=0;" edge="1" parent="1" source="z9sWmunYkAh27AiPCt_Q-37" target="z9sWmunYkAh27AiPCt_Q-26">
          <mxGeometry x="-0.9588" relative="1" as="geometry">
            <mxPoint x="440" y="590" as="sourcePoint" />
            <mxPoint x="600" y="590" as="targetPoint" />
            <Array as="points">
              <mxPoint x="460" y="610" />
              <mxPoint x="460" y="610" />
            </Array>
            <mxPoint as="offset" />
          </mxGeometry>
        </mxCell>
        <mxCell id="z9sWmunYkAh27AiPCt_Q-44" value="1" style="edgeLabel;resizable=0;html=1;align=left;verticalAlign=bottom;" connectable="0" vertex="1" parent="z9sWmunYkAh27AiPCt_Q-43">
          <mxGeometry x="-1" relative="1" as="geometry" />
        </mxCell>
        <mxCell id="z9sWmunYkAh27AiPCt_Q-52" value="3 return" style="html=1;verticalAlign=bottom;endArrow=open;dashed=1;endSize=8;edgeStyle=elbowEdgeStyle;elbow=vertical;curved=0;rounded=0;" edge="1" parent="1" source="z9sWmunYkAh27AiPCt_Q-32" target="z9sWmunYkAh27AiPCt_Q-26">
          <mxGeometry x="0.0037" relative="1" as="geometry">
            <mxPoint x="660" y="670" as="sourcePoint" />
            <mxPoint x="580" y="670" as="targetPoint" />
            <Array as="points">
              <mxPoint x="570" y="670" />
            </Array>
            <mxPoint as="offset" />
          </mxGeometry>
        </mxCell>
        <mxCell id="z9sWmunYkAh27AiPCt_Q-54" value="发送消息" style="endArrow=block;endFill=1;html=1;edgeStyle=orthogonalEdgeStyle;align=left;verticalAlign=top;rounded=0;" edge="1" parent="1" source="z9sWmunYkAh27AiPCt_Q-53" target="z9sWmunYkAh27AiPCt_Q-32">
          <mxGeometry x="-1" relative="1" as="geometry">
            <mxPoint x="440" y="720" as="sourcePoint" />
            <mxPoint x="600" y="720" as="targetPoint" />
            <Array as="points">
              <mxPoint x="610" y="725" />
              <mxPoint x="610" y="725" />
            </Array>
          </mxGeometry>
        </mxCell>
        <mxCell id="z9sWmunYkAh27AiPCt_Q-55" value="4" style="edgeLabel;resizable=0;html=1;align=left;verticalAlign=bottom;" connectable="0" vertex="1" parent="z9sWmunYkAh27AiPCt_Q-54">
          <mxGeometry x="-1" relative="1" as="geometry" />
        </mxCell>
        <mxCell id="z9sWmunYkAh27AiPCt_Q-56" value="发送新message" style="endArrow=block;endFill=1;html=1;edgeStyle=orthogonalEdgeStyle;align=left;verticalAlign=top;rounded=0;" edge="1" parent="1" target="z9sWmunYkAh27AiPCt_Q-58">
          <mxGeometry x="-1" relative="1" as="geometry">
            <mxPoint x="675" y="750" as="sourcePoint" />
            <mxPoint x="850" y="740" as="targetPoint" />
            <Array as="points">
              <mxPoint x="770" y="750" />
              <mxPoint x="770" y="750" />
            </Array>
          </mxGeometry>
        </mxCell>
        <mxCell id="z9sWmunYkAh27AiPCt_Q-57" value="5" style="edgeLabel;resizable=0;html=1;align=left;verticalAlign=bottom;" connectable="0" vertex="1" parent="z9sWmunYkAh27AiPCt_Q-56">
          <mxGeometry x="-1" relative="1" as="geometry" />
        </mxCell>
        <mxCell id="z9sWmunYkAh27AiPCt_Q-59" value="6 接受响应" style="html=1;verticalAlign=bottom;endArrow=open;dashed=1;endSize=8;edgeStyle=elbowEdgeStyle;elbow=vertical;curved=0;rounded=0;" edge="1" parent="1" source="z9sWmunYkAh27AiPCt_Q-58">
          <mxGeometry relative="1" as="geometry">
            <mxPoint x="780" y="790" as="sourcePoint" />
            <mxPoint x="675" y="790" as="targetPoint" />
            <Array as="points">
              <mxPoint x="700" y="790" />
            </Array>
          </mxGeometry>
        </mxCell>
        <mxCell id="z9sWmunYkAh27AiPCt_Q-61" value="7 处理消息" style="html=1;verticalAlign=bottom;endArrow=open;dashed=1;endSize=8;edgeStyle=elbowEdgeStyle;elbow=vertical;curved=0;rounded=0;" edge="1" parent="1" source="z9sWmunYkAh27AiPCt_Q-32" target="z9sWmunYkAh27AiPCt_Q-60">
          <mxGeometry x="0.0037" relative="1" as="geometry">
            <mxPoint x="640" y="840" as="sourcePoint" />
            <mxPoint x="560" y="840" as="targetPoint" />
            <Array as="points">
              <mxPoint x="640" y="810" />
              <mxPoint x="560" y="840" />
            </Array>
            <mxPoint as="offset" />
          </mxGeometry>
        </mxCell>
        <mxCell id="z9sWmunYkAh27AiPCt_Q-62" value="8 显示消息" style="html=1;verticalAlign=bottom;endArrow=open;dashed=1;endSize=8;edgeStyle=elbowEdgeStyle;elbow=vertical;curved=0;rounded=0;" edge="1" parent="1" source="z9sWmunYkAh27AiPCt_Q-60" target="z9sWmunYkAh27AiPCt_Q-53">
          <mxGeometry relative="1" as="geometry">
            <mxPoint x="520" y="850" as="sourcePoint" />
            <mxPoint x="440" y="850" as="targetPoint" />
            <Array as="points">
              <mxPoint x="480" y="840" />
            </Array>
          </mxGeometry>
        </mxCell>
      </root>
    </mxGraphModel>
  </diagram>
</mxfile>
